<?xml version="1.0" standalone="no"?>
<!DOCTYPE svg PUBLIC "-//W3C//DTD SVG 20010904//EN"
 "http://www.w3.org/TR/2001/REC-SVG-20010904/DTD/svg10.dtd">
<svg version="1.0" xmlns="http://www.w3.org/2000/svg"
 width="607.000000pt" height="607.000000pt" viewBox="0 0 607.000000 607.000000"
 preserveAspectRatio="xMidYMid meet">
<metadata>
Created by potrace 1.11, written by Peter Selinger 2001-2013
</metadata>
<g transform="translate(0.000000,607.000000) scale(0.100000,-0.100000)"
fill="#000000" stroke="none">
<path d="M3981 5962 c-133 -22 -260 -74 -362 -148 -26 -19 -49 -34 -51 -34 -3
0 -5 14 -5 31 0 93 -137 45 -276 -96 -39 -39 -108 -148 -131 -205 -10 -25 -22
-54 -27 -65 -10 -23 -34 -122 -43 -177 -4 -21 -11 -38 -15 -38 -11 0 -32 56
-24 63 2 3 -1 15 -7 27 -10 19 -18 22 -56 17 -38 -4 -44 -2 -50 17 -15 47 -69
116 -91 116 -23 0 -53 -24 -53 -42 0 -19 -70 -158 -93 -185 -12 -14 -67 -72
-122 -129 -55 -56 -112 -117 -126 -135 -26 -32 -27 -33 -45 -14 -27 26 -121
85 -137 85 -7 0 -17 4 -23 9 -8 8 -85 36 -91 33 -2 0 -17 4 -35 9 -18 5 -59
12 -91 15 -47 5 -62 2 -78 -12 -26 -23 -24 -36 9 -72 44 -49 91 -130 92 -160
0 -29 -180 10 -243 52 -20 14 -37 23 -37 19 0 -3 -6 0 -14 6 -21 18 -46 -13
-47 -57 -1 -56 -6 -225 -8 -246 -1 -17 -2 -17 -27 -1 -14 9 -33 24 -43 33 -36
35 -71 62 -80 62 -5 0 -11 4 -13 8 -2 7 -58 45 -143 100 -66 41 -219 109 -300
132 -72 21 -157 37 -179 35 -11 -1 -26 -3 -33 -4 -22 -2 -34 -37 -22 -68 6
-15 13 -37 15 -48 2 -11 11 -44 20 -73 9 -29 14 -55 11 -58 -3 -3 -29 -1 -59
5 -91 18 -118 22 -176 22 -63 1 -159 -8 -171 -15 -4 -3 -23 -8 -41 -11 -37 -6
-122 -41 -157 -63 -26 -16 -30 -53 -10 -71 8 -6 41 -26 75 -43 61 -33 152
-104 152 -118 0 -4 -12 -11 -27 -15 -78 -18 -195 -89 -265 -158 -40 -40 -80
-85 -88 -102 -8 -16 -19 -37 -25 -45 -42 -56 -91 -226 -101 -352 l-7 -77 28
-13 c27 -12 30 -11 79 45 28 31 55 57 59 57 4 0 7 -17 7 -37 0 -59 10 -83 38
-90 20 -5 31 1 61 34 20 21 45 42 55 46 22 8 21 8 -22 -105 -17 -43 -28 -78
-26 -78 3 0 -2 -12 -9 -27 -17 -33 -53 -210 -63 -308 -11 -110 -7 -285 7 -312
8 -15 21 -23 39 -23 22 0 31 10 58 63 36 68 65 107 80 107 5 0 12 -26 15 -57
7 -79 33 -133 65 -133 13 0 37 11 53 25 37 30 90 41 127 25 53 -23 151 -183
192 -313 27 -85 26 -94 -13 -102 -17 -4 -48 -16 -67 -25 -114 -59 -77 -136 62
-132 37 0 70 -3 73 -8 7 -12 7 -330 0 -375 -3 -16 -7 -57 -11 -90 -3 -33 -7
-69 -9 -80 -37 -239 -37 -240 67 -231 37 3 101 17 141 31 82 28 91 30 82 15
-4 -6 -8 -25 -11 -43 -2 -17 -11 -66 -19 -107 -8 -41 -17 -86 -20 -100 -18
-98 -104 -438 -130 -514 -30 -84 -16 -106 66 -108 84 -2 156 23 251 86 l26 17
15 -33 c108 -239 164 -329 268 -430 62 -61 131 -108 158 -108 27 0 41 33 41
98 0 91 25 172 53 172 2 0 10 -28 17 -62 20 -103 102 -238 144 -238 13 0 66
68 66 85 0 2 14 28 32 57 34 57 81 108 99 108 28 0 69 -37 95 -86 18 -34 36
-54 46 -54 22 0 58 35 58 55 0 30 31 76 72 105 34 25 44 28 54 18 6 -7 33 -77
58 -156 51 -155 74 -203 119 -244 70 -64 140 -59 284 24 40 23 73 45 73 50 0
4 7 8 15 8 9 0 18 7 21 15 4 8 10 15 16 15 13 0 179 135 254 207 l62 59 34
-18 c54 -28 168 -25 267 8 46 16 101 44 101 54 0 3 8 15 18 28 l17 22 60 -20
c89 -31 186 -55 255 -65 19 -3 49 -7 65 -11 58 -11 210 -11 255 1 94 25 131
56 167 141 24 55 24 56 24 159 0 69 -26 209 -43 231 -17 23 23 39 99 39 70 0
76 -2 99 -29 14 -15 27 -40 30 -55 7 -32 38 -54 64 -46 21 7 107 129 138 198
21 46 31 54 46 40 3 -4 15 -8 26 -10 14 -2 25 10 43 50 27 57 56 151 59 191 3
31 6 31 38 9 32 -22 57 -49 86 -95 18 -28 31 -38 50 -38 69 0 129 300 101 510
-14 108 -46 245 -72 308 -15 33 -20 72 -10 72 2 0 29 -11 59 -25 65 -30 67
-30 87 -7 15 18 16 24 5 67 -2 11 -11 49 -20 84 l-15 63 32 -5 c18 -3 75 -13
127 -22 101 -18 251 -16 288 4 42 22 34 49 -36 125 -37 39 -71 76 -77 82 -5 6
-26 31 -47 55 -20 24 -46 55 -57 68 -12 13 -21 27 -21 30 0 3 -16 23 -36 44
-19 20 -32 37 -28 37 4 0 -2 10 -13 23 -71 76 -223 367 -223 425 0 5 19 16 43
26 23 9 60 26 83 37 23 10 44 19 48 19 4 0 29 14 56 32 52 34 87 85 77 111 -3
9 -33 29 -67 46 -60 30 -208 128 -265 175 -16 14 -35 29 -40 33 -12 9 -172
151 -194 172 -13 12 -10 17 17 40 33 26 62 72 62 96 0 8 -11 23 -25 33 -31 25
-67 22 -139 -11 l-53 -24 -36 41 c-20 22 -50 67 -67 98 -45 84 -28 107 83 113
57 3 82 22 74 57 -4 13 -34 57 -68 97 -33 40 -58 76 -54 79 11 12 111 4 148
-12 45 -18 65 -13 73 21 9 33 -14 74 -81 148 -16 19 -37 43 -47 53 -22 27
-162 132 -176 132 -5 0 -12 4 -14 8 -5 12 -166 88 -230 108 -77 23 -63 49 39
69 18 4 35 14 38 25 7 23 -14 70 -32 70 -7 0 -13 4 -13 9 0 5 -16 15 -35 21
-39 13 -47 29 -12 24 86 -10 111 -15 128 -24 28 -16 59 4 59 38 0 20 -14 41
-52 77 -67 64 -152 135 -162 135 -4 0 -17 9 -29 21 -43 40 -299 157 -413 189
-62 17 -125 32 -140 34 -35 4 -41 29 -23 95 9 34 28 61 71 103 61 59 68 76 42
103 -19 18 -71 18 -193 -3z"/>
</g>
</svg>
