<svg xmlns="http://www.w3.org/2000/svg" viewBox="0 0 14.87 13.97"><defs><style>.cls-1{fill:#fff;}.cls-2{fill:#f0483e;}</style></defs><title>Asset 1</title><g id="Layer_1-2"><path class="cls-1" d="M14.87 4.15a4.37 4.37 0 0 1-.3 1.56 6.42 6.42 0 0 1-1 1.74 14.32 14.32 0 0 1-1.57 1.63l-.87.78-1.11 1a9.84 9.84 0 0 0-1.36 1.44 3.09 3.09 0 0 0-.51.93c0 .11 0 .17-.05.23a.89.89 0 0 1-.22.33.7.7 0 0 1-1.13-.41 1.83 1.83 0 0 0-.25-.64 6.59 6.59 0 0 0-1-1.25c-.48-.5-1-1-1.59-1.49l-.21-.18c-.6-.52-1.22-1.07-1.79-1.67a9 9 0 0 1-1.11-1.45 5.11 5.11 0 0 1-.73-1.8 4 4 0 0 1 .68-3.09 4.09 4.09 0 0 1 2.54-1.71 3.8 3.8 0 0 1 3.33.82 4.19 4.19 0 0 1 .82.9 4 4 0 0 1 2.56-1.74 3.78 3.78 0 0 1 2.54.35 4.14 4.14 0 0 1 2.22 2.69 3.91 3.91 0 0 1 .14 1"/><path class="cls-2" d="M7.43 11.86l.21-.3a11 11 0 0 1 1.5-1.63l1.11-1 .87-.78a13 13 0 0 0 1.44-1.48 5.1 5.1 0 0 0 .83-1.4 2.84 2.84 0 0 0 .13-1.8 2.9 2.9 0 0 0-1.52-1.92 2.56 2.56 0 0 0-1.72-.24 2.78 2.78 0 0 0-1.88 1.4 3.51 3.51 0 0 0-.4.76.63.63 0 0 1-1.19 0 3.13 3.13 0 0 0-1-1.61 2.52 2.52 0 0 0-2.26-.56 2.86 2.86 0 0 0-1.78 1.2 2.72 2.72 0 0 0-.47 2.15 3.87 3.87 0 0 0 .57 1.35 7.55 7.55 0 0 0 1 1.24c.53.56 1.1 1.06 1.71 1.59l.21.18c.61.53 1.15 1 1.67 1.56a8.37 8.37 0 0 1 1 1.24"/></g></svg>